<svg width="98" height="54" viewBox="0 0 98 54" fill="none" xmlns="http://www.w3.org/2000/svg">
<rect x="20.5815" y="47.8438" width="77.2322" height="3.35792" rx="1.67896" fill="white"/>
<rect x="0.433838" y="47.8438" width="17.9089" height="3.35792" rx="1.67896" fill="white"/>
<rect x="26.7375" y="42.8069" width="17.9089" height="3.35792" rx="1.67896" fill="white"/>
<rect x="29.5359" y="0.273193" width="45.8916" height="3.35792" rx="1.67896" transform="rotate(90 29.5359 0.273193)" fill="white"/>
<rect x="28.1826" width="20.945" height="3.35792" rx="1.67896" transform="rotate(34.8177 28.1826 0)" fill="white"/>
<rect x="24.6521" y="10.1116" width="25.8751" height="3.35792" rx="1.67896" transform="rotate(153.481 24.6521 10.1116)" fill="white"/>
<rect x="20.5815" y="51.2017" width="43.0933" height="3.35792" rx="1.67896" transform="rotate(-90 20.5815 51.2017)" fill="white"/>
<rect x="0.433838" y="51.2017" width="43.0933" height="3.35792" rx="1.67896" transform="rotate(-90 0.433838 51.2017)" fill="white"/>
<rect x="41.2886" y="54" width="43.0933" height="3.35792" rx="1.67896" transform="rotate(-90 41.2886 54)" fill="white"/>
<path d="M45.9461 20.7618H51.4688V37.2277H51.6862L63.0001 20.7618H67.8453V46.9436H62.3097V30.4649H62.118L50.7401 46.9436H45.9461V20.7618ZM94.6759 20.7618V46.9436H89.2043V25.2618H78.619V46.9436H73.1475V20.7618H94.6759Z" fill="white"/>
</svg>
